<mxfile host="app.diagrams.net" modified="2023-05-01T09:23:00.499Z" agent="Mozilla/5.0 (Windows NT 10.0; Win64; x64) AppleWebKit/537.36 (KHTML, like Gecko) Chrome/112.0.0.0 Safari/537.36" etag="vsFhhWNYCH2DNS5USylu" version="21.2.3" type="device">
  <diagram id="fPzfyFliZ7Yd1vYK0U9w" name="Page-1">
    <mxGraphModel dx="2514" dy="889" grid="1" gridSize="10" guides="1" tooltips="1" connect="1" arrows="1" fold="1" page="1" pageScale="1" pageWidth="827" pageHeight="1169" math="0" shadow="0">
      <root>
        <mxCell id="0" />
        <mxCell id="1" parent="0" />
        <mxCell id="VsKCgW5J-6k32DX0Udxv-39" style="edgeStyle=orthogonalEdgeStyle;rounded=0;orthogonalLoop=1;jettySize=auto;html=1;exitX=1;exitY=0.5;exitDx=0;exitDy=0;entryX=0;entryY=0.25;entryDx=0;entryDy=0;endArrow=none;endFill=0;strokeColor=#000000;" parent="1" edge="1">
          <mxGeometry relative="1" as="geometry">
            <Array as="points">
              <mxPoint x="650" y="430" />
              <mxPoint x="650" y="600" />
              <mxPoint x="220" y="600" />
              <mxPoint x="220" y="135" />
            </Array>
            <mxPoint x="240" y="135" as="targetPoint" />
          </mxGeometry>
        </mxCell>
        <mxCell id="VsKCgW5J-6k32DX0Udxv-56" style="edgeStyle=orthogonalEdgeStyle;rounded=0;orthogonalLoop=1;jettySize=auto;html=1;exitX=1;exitY=0.5;exitDx=0;exitDy=0;entryX=0;entryY=0.75;entryDx=0;entryDy=0;endArrow=none;endFill=0;strokeColor=#000000;" parent="1" edge="1">
          <mxGeometry relative="1" as="geometry">
            <Array as="points">
              <mxPoint x="670" y="235" />
              <mxPoint x="670" y="620" />
              <mxPoint x="200" y="620" />
              <mxPoint x="200" y="165" />
            </Array>
            <mxPoint x="240" y="165" as="targetPoint" />
          </mxGeometry>
        </mxCell>
        <mxCell id="VsKCgW5J-6k32DX0Udxv-75" style="edgeStyle=orthogonalEdgeStyle;rounded=0;orthogonalLoop=1;jettySize=auto;html=1;exitX=1;exitY=0.5;exitDx=0;exitDy=0;entryX=0;entryY=0.75;entryDx=0;entryDy=0;endArrow=none;endFill=0;strokeColor=#000000;" parent="1" edge="1">
          <mxGeometry relative="1" as="geometry">
            <Array as="points">
              <mxPoint x="790" y="350" />
              <mxPoint x="790" y="670" />
              <mxPoint x="170" y="670" />
              <mxPoint x="170" y="285" />
            </Array>
            <mxPoint x="240" y="285" as="targetPoint" />
          </mxGeometry>
        </mxCell>
        <mxCell id="S50SfadEj_HTGTUzQWds-11" style="edgeStyle=orthogonalEdgeStyle;rounded=0;orthogonalLoop=1;jettySize=auto;html=1;endArrow=ERoneToMany;endFill=0;startArrow=ERone;startFill=0;strokeWidth=2;fillColor=#f5f5f5;strokeColor=#666666;" edge="1" parent="1" source="7ZU2I1w5966ntKH4abzH-273" target="S50SfadEj_HTGTUzQWds-2">
          <mxGeometry relative="1" as="geometry" />
        </mxCell>
        <mxCell id="S50SfadEj_HTGTUzQWds-12" style="edgeStyle=orthogonalEdgeStyle;rounded=0;orthogonalLoop=1;jettySize=auto;html=1;endArrow=ERone;endFill=0;startArrow=ERoneToMany;startFill=0;strokeWidth=2;fillColor=#f5f5f5;strokeColor=#666666;" edge="1" parent="1" source="7ZU2I1w5966ntKH4abzH-273" target="S50SfadEj_HTGTUzQWds-4">
          <mxGeometry relative="1" as="geometry" />
        </mxCell>
        <mxCell id="S50SfadEj_HTGTUzQWds-13" style="edgeStyle=orthogonalEdgeStyle;rounded=0;orthogonalLoop=1;jettySize=auto;html=1;endArrow=ERone;endFill=0;startArrow=ERoneToMany;startFill=0;strokeWidth=2;fillColor=#f5f5f5;strokeColor=#666666;" edge="1" parent="1" source="7ZU2I1w5966ntKH4abzH-273" target="S50SfadEj_HTGTUzQWds-3">
          <mxGeometry relative="1" as="geometry" />
        </mxCell>
        <mxCell id="7ZU2I1w5966ntKH4abzH-273" value="&lt;div style=&quot;box-sizing:border-box;width:100%;background:#e4e4e4;padding:2px;&quot;&gt;&lt;b&gt;messages&lt;/b&gt;&lt;/div&gt;&lt;table style=&quot;width:100%;font-size:1em;&quot; cellpadding=&quot;2&quot; cellspacing=&quot;0&quot;&gt;&lt;tbody&gt;&lt;tr&gt;&lt;td&gt;&lt;b&gt;PK&lt;/b&gt;&lt;/td&gt;&lt;td&gt;&lt;b&gt;id: uuid&lt;/b&gt;&lt;/td&gt;&lt;/tr&gt;&lt;tr&gt;&lt;td&gt;&lt;b&gt;FK1&lt;/b&gt;&lt;/td&gt;&lt;td&gt;&lt;b&gt;chat_id: uuid&lt;/b&gt;&lt;/td&gt;&lt;/tr&gt;&lt;tr&gt;&lt;td&gt;&lt;b&gt;FK2&lt;/b&gt;&lt;/td&gt;&lt;td&gt;&lt;b&gt;user_id: uuid&lt;/b&gt;&lt;/td&gt;&lt;/tr&gt;&lt;tr&gt;&lt;td&gt;&lt;b&gt;FK3&lt;/b&gt;&lt;/td&gt;&lt;td&gt;&lt;b&gt;attachment_id: uuid&lt;/b&gt;&lt;/td&gt;&lt;/tr&gt;&lt;tr&gt;&lt;td&gt;&lt;b&gt;&lt;br&gt;&lt;/b&gt;&lt;/td&gt;&lt;td&gt;&lt;b&gt;content: text&lt;/b&gt;&lt;/td&gt;&lt;/tr&gt;&lt;tr&gt;&lt;td&gt;&lt;b&gt;&lt;br&gt;&lt;/b&gt;&lt;/td&gt;&lt;td&gt;&lt;b&gt;date_create: timestamp&lt;/b&gt;&lt;/td&gt;&lt;/tr&gt;&lt;/tbody&gt;&lt;/table&gt;" style="verticalAlign=top;align=left;overflow=fill;html=1;whiteSpace=wrap;" parent="1" vertex="1">
          <mxGeometry x="242" y="325" width="190" height="140" as="geometry" />
        </mxCell>
        <mxCell id="S50SfadEj_HTGTUzQWds-1" value="&lt;div style=&quot;box-sizing:border-box;width:100%;background:#e4e4e4;padding:2px;&quot;&gt;&lt;b&gt;chat_users&lt;/b&gt;&lt;/div&gt;&lt;table style=&quot;width:100%;font-size:1em;&quot; cellpadding=&quot;2&quot; cellspacing=&quot;0&quot;&gt;&lt;tbody&gt;&lt;tr&gt;&lt;td&gt;&lt;b&gt;PK&lt;/b&gt;&lt;/td&gt;&lt;td&gt;&lt;b&gt;id: uuid&lt;/b&gt;&lt;/td&gt;&lt;/tr&gt;&lt;tr&gt;&lt;td&gt;&lt;b&gt;FK1&lt;/b&gt;&lt;/td&gt;&lt;td&gt;&lt;b&gt;user_id: uuid&lt;/b&gt;&lt;/td&gt;&lt;/tr&gt;&lt;tr&gt;&lt;td&gt;&lt;b&gt;FK2&lt;/b&gt;&lt;/td&gt;&lt;td&gt;&lt;b&gt;chat_id: uuid&lt;/b&gt;&lt;/td&gt;&lt;/tr&gt;&lt;/tbody&gt;&lt;/table&gt;" style="verticalAlign=top;align=left;overflow=fill;html=1;whiteSpace=wrap;" vertex="1" parent="1">
          <mxGeometry x="640" y="150" width="180" height="90" as="geometry" />
        </mxCell>
        <mxCell id="S50SfadEj_HTGTUzQWds-10" style="edgeStyle=orthogonalEdgeStyle;rounded=0;orthogonalLoop=1;jettySize=auto;html=1;endArrow=ERoneToMany;endFill=0;startArrow=ERone;startFill=0;strokeWidth=2;fillColor=#f5f5f5;strokeColor=#666666;exitX=0.5;exitY=0;exitDx=0;exitDy=0;" edge="1" parent="1" source="S50SfadEj_HTGTUzQWds-2" target="S50SfadEj_HTGTUzQWds-1">
          <mxGeometry relative="1" as="geometry">
            <Array as="points">
              <mxPoint x="-60" y="90" />
              <mxPoint x="730" y="90" />
            </Array>
          </mxGeometry>
        </mxCell>
        <mxCell id="S50SfadEj_HTGTUzQWds-2" value="&lt;div style=&quot;box-sizing:border-box;width:100%;background:#e4e4e4;padding:2px;&quot;&gt;&lt;b&gt;chats&lt;/b&gt;&lt;/div&gt;&lt;table style=&quot;width:100%;font-size:1em;&quot; cellpadding=&quot;2&quot; cellspacing=&quot;0&quot;&gt;&lt;tbody&gt;&lt;tr&gt;&lt;td&gt;&lt;b&gt;PK&lt;/b&gt;&lt;/td&gt;&lt;td&gt;&lt;b&gt;id: uuid&lt;/b&gt;&lt;/td&gt;&lt;/tr&gt;&lt;tr&gt;&lt;td&gt;&lt;b&gt;FK1&lt;/b&gt;&lt;/td&gt;&lt;td&gt;&lt;b&gt;name: uuid&lt;/b&gt;&lt;/td&gt;&lt;/tr&gt;&lt;tr&gt;&lt;td&gt;&lt;/td&gt;&lt;td&gt;&lt;b&gt;&lt;br&gt;&lt;/b&gt;&lt;/td&gt;&lt;/tr&gt;&lt;/tbody&gt;&lt;/table&gt;" style="verticalAlign=top;align=left;overflow=fill;html=1;whiteSpace=wrap;" vertex="1" parent="1">
          <mxGeometry x="-150" y="210" width="180" height="70" as="geometry" />
        </mxCell>
        <mxCell id="S50SfadEj_HTGTUzQWds-8" style="edgeStyle=orthogonalEdgeStyle;rounded=0;orthogonalLoop=1;jettySize=auto;html=1;endArrow=ERone;endFill=0;startArrow=ERoneToMany;startFill=0;strokeWidth=2;fillColor=#f5f5f5;strokeColor=#666666;" edge="1" parent="1" source="S50SfadEj_HTGTUzQWds-3" target="S50SfadEj_HTGTUzQWds-1">
          <mxGeometry relative="1" as="geometry" />
        </mxCell>
        <mxCell id="S50SfadEj_HTGTUzQWds-3" value="&lt;div style=&quot;box-sizing:border-box;width:100%;background:#e4e4e4;padding:2px;&quot;&gt;&lt;b style=&quot;&quot;&gt;attachments&lt;/b&gt;&lt;/div&gt;&lt;table style=&quot;width:100%;font-size:1em;&quot; cellpadding=&quot;2&quot; cellspacing=&quot;0&quot;&gt;&lt;tbody&gt;&lt;tr&gt;&lt;td&gt;&lt;b&gt;PK&lt;/b&gt;&lt;/td&gt;&lt;td&gt;&lt;b&gt;id: uuid&lt;/b&gt;&lt;/td&gt;&lt;/tr&gt;&lt;tr&gt;&lt;td&gt;&lt;b&gt;FK1&lt;/b&gt;&lt;/td&gt;&lt;td&gt;&lt;b&gt;user_id: uuid&lt;/b&gt;&lt;/td&gt;&lt;/tr&gt;&lt;tr&gt;&lt;td&gt;&lt;/td&gt;&lt;td&gt;&lt;b&gt;folder: text&lt;/b&gt;&lt;/td&gt;&lt;/tr&gt;&lt;tr&gt;&lt;td&gt;&lt;b&gt;&lt;br&gt;&lt;/b&gt;&lt;/td&gt;&lt;td&gt;&lt;b&gt;name: text&lt;/b&gt;&lt;/td&gt;&lt;/tr&gt;&lt;tr&gt;&lt;td&gt;&lt;b&gt;&lt;br&gt;&lt;/b&gt;&lt;/td&gt;&lt;td&gt;&lt;b&gt;content_type: text&lt;/b&gt;&lt;/td&gt;&lt;/tr&gt;&lt;/tbody&gt;&lt;/table&gt;" style="verticalAlign=top;align=left;overflow=fill;html=1;whiteSpace=wrap;" vertex="1" parent="1">
          <mxGeometry x="247" y="130" width="180" height="130" as="geometry" />
        </mxCell>
        <mxCell id="S50SfadEj_HTGTUzQWds-9" style="edgeStyle=orthogonalEdgeStyle;rounded=0;orthogonalLoop=1;jettySize=auto;html=1;endArrow=ERoneToMany;endFill=0;startArrow=ERone;startFill=0;strokeWidth=2;fillColor=#f5f5f5;strokeColor=#666666;" edge="1" parent="1" source="S50SfadEj_HTGTUzQWds-4" target="S50SfadEj_HTGTUzQWds-1">
          <mxGeometry relative="1" as="geometry" />
        </mxCell>
        <mxCell id="S50SfadEj_HTGTUzQWds-16" style="edgeStyle=orthogonalEdgeStyle;rounded=0;orthogonalLoop=1;jettySize=auto;html=1;endArrow=ERoneToMany;endFill=0;startArrow=ERone;startFill=0;strokeWidth=2;fillColor=#f5f5f5;strokeColor=#666666;" edge="1" parent="1" source="S50SfadEj_HTGTUzQWds-4" target="S50SfadEj_HTGTUzQWds-7">
          <mxGeometry relative="1" as="geometry" />
        </mxCell>
        <mxCell id="S50SfadEj_HTGTUzQWds-4" value="&lt;div style=&quot;box-sizing:border-box;width:100%;background:#e4e4e4;padding:2px;&quot;&gt;&lt;b&gt;users&lt;/b&gt;&lt;/div&gt;&lt;table style=&quot;width:100%;font-size:1em;&quot; cellpadding=&quot;2&quot; cellspacing=&quot;0&quot;&gt;&lt;tbody&gt;&lt;tr&gt;&lt;td&gt;&lt;b&gt;PK&lt;/b&gt;&lt;/td&gt;&lt;td&gt;&lt;b&gt;id: uuid&lt;/b&gt;&lt;/td&gt;&lt;/tr&gt;&lt;tr&gt;&lt;td&gt;&lt;b&gt;&lt;br&gt;&lt;/b&gt;&lt;/td&gt;&lt;td&gt;&lt;b&gt;email: text&lt;/b&gt;&lt;/td&gt;&lt;/tr&gt;&lt;tr&gt;&lt;td&gt;&lt;b&gt;&lt;br&gt;&lt;/b&gt;&lt;/td&gt;&lt;td&gt;&lt;b&gt;username: text&lt;/b&gt;&lt;/td&gt;&lt;/tr&gt;&lt;tr&gt;&lt;td&gt;&lt;/td&gt;&lt;td&gt;&lt;b&gt;password_hash: text&lt;/b&gt;&lt;/td&gt;&lt;/tr&gt;&lt;/tbody&gt;&lt;/table&gt;" style="verticalAlign=top;align=left;overflow=fill;html=1;whiteSpace=wrap;" vertex="1" parent="1">
          <mxGeometry x="245" y="545" width="186" height="100" as="geometry" />
        </mxCell>
        <mxCell id="S50SfadEj_HTGTUzQWds-14" style="edgeStyle=orthogonalEdgeStyle;rounded=0;orthogonalLoop=1;jettySize=auto;html=1;endArrow=ERone;endFill=0;startArrow=ERoneToMany;startFill=0;fillColor=#f5f5f5;strokeColor=#666666;strokeWidth=2;" edge="1" parent="1" source="S50SfadEj_HTGTUzQWds-5" target="S50SfadEj_HTGTUzQWds-4">
          <mxGeometry relative="1" as="geometry" />
        </mxCell>
        <mxCell id="S50SfadEj_HTGTUzQWds-5" value="&lt;div style=&quot;box-sizing:border-box;width:100%;background:#e4e4e4;padding:2px;&quot;&gt;&lt;b&gt;public_keys&lt;/b&gt;&lt;/div&gt;&lt;table style=&quot;width:100%;font-size:1em;&quot; cellpadding=&quot;2&quot; cellspacing=&quot;0&quot;&gt;&lt;tbody&gt;&lt;tr&gt;&lt;td&gt;&lt;b&gt;PK&lt;/b&gt;&lt;/td&gt;&lt;td&gt;&lt;b&gt;id: uuid&lt;/b&gt;&lt;/td&gt;&lt;/tr&gt;&lt;tr&gt;&lt;td&gt;&lt;b&gt;FK1&lt;/b&gt;&lt;/td&gt;&lt;td&gt;&lt;b&gt;user_id: uuid&lt;/b&gt;&lt;/td&gt;&lt;/tr&gt;&lt;tr&gt;&lt;td&gt;&lt;/td&gt;&lt;td&gt;&lt;b&gt;x: text&lt;/b&gt;&lt;/td&gt;&lt;/tr&gt;&lt;tr&gt;&lt;td&gt;&lt;b&gt;&lt;br&gt;&lt;/b&gt;&lt;/td&gt;&lt;td&gt;&lt;b&gt;y: text&lt;/b&gt;&lt;/td&gt;&lt;/tr&gt;&lt;/tbody&gt;&lt;/table&gt;" style="verticalAlign=top;align=left;overflow=fill;html=1;whiteSpace=wrap;" vertex="1" parent="1">
          <mxGeometry x="247" y="720" width="180" height="100" as="geometry" />
        </mxCell>
        <mxCell id="S50SfadEj_HTGTUzQWds-7" value="&lt;div style=&quot;box-sizing:border-box;width:100%;background:#e4e4e4;padding:2px;&quot;&gt;&lt;b&gt;private_keys&lt;/b&gt;&lt;/div&gt;&lt;table style=&quot;width:100%;font-size:1em;&quot; cellpadding=&quot;2&quot; cellspacing=&quot;0&quot;&gt;&lt;tbody&gt;&lt;tr&gt;&lt;td&gt;&lt;b&gt;PK&lt;/b&gt;&lt;/td&gt;&lt;td&gt;&lt;b&gt;id: uuid&lt;/b&gt;&lt;/td&gt;&lt;/tr&gt;&lt;tr&gt;&lt;td&gt;&lt;b&gt;FK1&lt;/b&gt;&lt;/td&gt;&lt;td&gt;&lt;b&gt;user_id: uuid&lt;/b&gt;&lt;/td&gt;&lt;/tr&gt;&lt;tr&gt;&lt;td&gt;&lt;/td&gt;&lt;td&gt;&lt;b&gt;key: text&lt;/b&gt;&lt;/td&gt;&lt;/tr&gt;&lt;/tbody&gt;&lt;/table&gt;" style="verticalAlign=top;align=left;overflow=fill;html=1;whiteSpace=wrap;" vertex="1" parent="1">
          <mxGeometry x="-20" y="550" width="180" height="90" as="geometry" />
        </mxCell>
      </root>
    </mxGraphModel>
  </diagram>
</mxfile>
